<svg width="106" height="9" viewBox="0 0 106 9" fill="none" xmlns="http://www.w3.org/2000/svg">
<path d="M0 4.50003C0 2.01475 2.01472 3.05176e-05 4.5 3.05176e-05H101.5C103.985 3.05176e-05 106 2.01475 106 4.50003C106 6.98531 103.985 9.00003 101.5 9.00003H4.5C2.01472 9.00003 0 6.98531 0 4.50003Z" fill="#ABAAAA"/>
<path d="M2 4.50003C2 2.56703 3.567 1.00003 5.5 1.00003H70.5C72.433 1.00003 74 2.56703 74 4.50003C74 6.43303 72.433 8.00003 70.5 8.00003H5.5C3.567 8.00003 2 6.43303 2 4.50003Z" fill="#FDA8A8"/>
</svg>
